<?xml version="1.0" encoding="utf-8"?>
<!-- Generator: Adobe Illustrator 28.0.0, SVG Export Plug-In . SVG Version: 6.00 Build 0)  -->
<svg version="1.1" id="图层_1" xmlns="http://www.w3.org/2000/svg" xmlns:xlink="http://www.w3.org/1999/xlink" x="0px" y="0px"
	 viewBox="0 0 65.32 35" style="enable-background:new 0 0 65.32 35;" xml:space="preserve">
<style type="text/css">
	.st0{fill:#D3171A;}
	.st1{fill:#FFFFFF;}
</style>
<path class="st0" d="M49.6,33.43H1.63V15.66c0-7.78,6.31-14.09,14.09-14.09h47.97v17.77C63.69,27.12,57.38,33.43,49.6,33.43z"/>
<g>
	<path class="st1" d="M29.78,9.08v17.09c0,1.15-0.58,1.72-1.75,1.72h-2.51c-0.6,0-0.9-0.3-0.9-0.9v-0.51c0-0.61,0.3-0.92,0.9-0.92
		h1.77V9.68H15.4v7.89c0,3.48-1,6.77-2.99,9.87c-0.17,0.26-0.36,0.41-0.56,0.45c-0.21,0.04-0.45-0.03-0.72-0.2l-0.46-0.28
		c-0.51-0.37-0.59-0.81-0.25-1.33c0.86-1.36,1.49-2.75,1.9-4.16c0.41-1.41,0.61-2.86,0.61-4.35V9.08c0-1.17,0.58-1.75,1.75-1.75
		h13.36C29.2,7.33,29.78,7.92,29.78,9.08z M28.49,20.33v0.51c0,0.61-0.3,0.92-0.9,0.92H15.06c-0.61,0-0.92-0.31-0.92-0.92v-0.51
		c0-0.61,0.31-0.92,0.92-0.92h12.54C28.19,19.41,28.49,19.72,28.49,20.33z M28.49,14.42v0.51c0,0.61-0.3,0.92-0.9,0.92H15.1
		c-0.6,0-0.9-0.31-0.9-0.92v-0.51c0-0.61,0.3-0.92,0.9-0.92h12.49C28.19,13.5,28.49,13.81,28.49,14.42z"/>
	<path class="st1" d="M36.09,14.81v2.78c0,2.71-0.19,5.14-0.58,7.29c-0.09,0.51-0.38,0.71-0.87,0.62l-0.44-0.07
		c-0.49-0.11-0.69-0.41-0.6-0.9c0.35-2.09,0.53-4.4,0.53-6.95v-2.78c0-0.51,0.25-0.76,0.76-0.76h0.41
		C35.83,14.05,36.09,14.3,36.09,14.81z M40.99,11.24v0.51c0,0.61-0.3,0.92-0.9,0.92h-5.4c-0.6,0-0.9-0.31-0.9-0.92v-0.51
		c0-0.61,0.3-0.92,0.9-0.92h5.4C40.69,10.32,40.99,10.63,40.99,11.24z M39.47,7.86v19.28c0,0.58-0.3,0.87-0.9,0.87h-0.48
		c-0.58,0-0.87-0.29-0.87-0.87V7.86c0-0.58,0.29-0.87,0.87-0.87h0.48C39.17,6.99,39.47,7.28,39.47,7.86z M41.13,18.1l-0.28,0.44
		c-0.31,0.52-0.72,0.63-1.24,0.32l-1.08-0.64c-0.52-0.32-0.63-0.74-0.32-1.26l0.28-0.44c0.32-0.52,0.74-0.63,1.26-0.32l1.06,0.64
		C41.34,17.16,41.45,17.58,41.13,18.1z M46.35,19.32v1.61c0,2.82-1.16,5.11-3.47,6.85c-0.48,0.37-0.88,0.29-1.22-0.23l-0.28-0.41
		c-0.17-0.26-0.23-0.49-0.18-0.7c0.05-0.21,0.19-0.4,0.44-0.59c0.89-0.67,1.52-1.41,1.89-2.2c0.37-0.79,0.55-1.7,0.55-2.73v-1.61
		c0-0.6,0.3-0.9,0.9-0.9h0.48C46.05,18.42,46.35,18.72,46.35,19.32z M55.11,18.19v0.46c0,0.55-0.27,0.83-0.8,0.83H42.14
		c-0.55,0-0.83-0.28-0.83-0.83v-0.46c0-0.55,0.28-0.83,0.83-0.83h12.17C54.84,17.36,55.11,17.64,55.11,18.19z M54.63,13.26
		c0.26,0.25,0.39,0.63,0.39,1.14v1.2c0,0.57-0.28,0.85-0.85,0.85h-0.46c-0.58,0-0.87-0.28-0.87-0.85v-0.64h-9.22v0.64
		c0,0.57-0.28,0.85-0.85,0.85H42.3c-0.57,0-0.85-0.28-0.85-0.85v-1.2c0-0.49,0.13-0.87,0.38-1.13c0.25-0.26,0.63-0.39,1.14-0.39
		H53.5C53.99,12.88,54.37,13,54.63,13.26z M54.81,9.24v0.44c0,0.55-0.27,0.83-0.8,0.83H42.44c-0.55,0-0.83-0.28-0.83-0.83V9.24
		c0-0.54,0.28-0.8,0.83-0.8h11.57C54.55,8.44,54.81,8.71,54.81,9.24z M45.98,11.73l0.23,1.1c0.11,0.57-0.14,0.91-0.74,1.04
		l-0.48,0.07c-0.57,0.11-0.91-0.13-1.04-0.71l-0.23-1.1c-0.12-0.57,0.12-0.92,0.71-1.06l0.48-0.05
		C45.49,10.89,45.84,11.13,45.98,11.73z M53.96,21.54c0.28,0.27,0.41,0.67,0.41,1.21v3.59c0,0.52-0.14,0.92-0.41,1.18
		c-0.28,0.27-0.67,0.4-1.2,0.4h-1.79c-0.54,0-0.8-0.27-0.8-0.8v-0.48c0-0.55,0.27-0.83,0.8-0.83h1.1v-2.55H46
		c-0.54,0-0.8-0.28-0.8-0.83v-0.46c0-0.55,0.27-0.83,0.8-0.83h6.76C53.29,21.13,53.69,21.27,53.96,21.54z M49.41,7.84v0.78
		c0,0.57-0.28,0.85-0.85,0.85h-0.62c-0.58,0-0.87-0.29-0.87-0.87l0.02-0.74c0-0.58,0.28-0.87,0.85-0.87h0.62
		C49.12,6.99,49.41,7.27,49.41,7.84z M49.36,16.51v1.04c0,0.58-0.29,0.87-0.87,0.87h-0.51c-0.58,0-0.87-0.29-0.87-0.87v-1.04
		c0-0.58,0.29-0.87,0.87-0.87h0.51C49.07,15.64,49.36,15.93,49.36,16.51z M52.72,12.12l-0.23,1.1c-0.12,0.58-0.48,0.82-1.06,0.71
		l-0.48-0.07c-0.58-0.12-0.82-0.47-0.71-1.04l0.23-1.1c0.12-0.6,0.48-0.84,1.06-0.71l0.48,0.05C52.59,11.2,52.83,11.55,52.72,12.12z
		"/>
</g>
<g>
</g>
<g>
</g>
<g>
</g>
<g>
</g>
<g>
</g>
<g>
</g>
</svg>
