<?xml version="1.0" encoding="UTF-8"?>
<svg id="_图层_2" data-name="图层 2" xmlns="http://www.w3.org/2000/svg" xmlns:xlink="http://www.w3.org/1999/xlink" viewBox="0 0 90.27 44.5">
  <defs>
    <style>
      .cls-1 {
        fill: #fff;
      }

      .cls-2 {
        fill: #4d4d4d;
      }

      .cls-3 {
        filter: url(#drop-shadow-1);
      }
    </style>
    <filter id="drop-shadow-1" filterUnits="userSpaceOnUse">
      <feOffset dx="5.02" dy="5.02"/>
      <feGaussianBlur result="blur" stdDeviation="10.04"/>
      <feFlood flood-color="#000" flood-opacity=".45"/>
      <feComposite in2="blur" operator="in"/>
      <feComposite in="SourceGraphic"/>
    </filter>
  </defs>
  <g id="_图层_1-2" data-name="图层 1">
    <g>
      <path class="cls-2" d="m85.25,0H10.25c-3,0-5.8,2.5-6.2,5.5L.05,39c-.4,3,1.8,5.5,4.9,5.5h75.1c3,0,5.8-2.5,6.2-5.5l4-33.5c.3-3-1.9-5.5-5-5.5Z"/>
      <g class="cls-3">
        <path class="cls-1" d="m15.62,34.21c.49-.42.76-.83.83-1.24l.91-5.26c-1.69,1.27-3.28,2.36-4.8,3.27l.75-4.44c1.77-1.17,3.4-2.41,4.89-3.72l.65-3.8c-1.51,1.13-3.11,2.22-4.8,3.27l.75-4.44c1.38-1.01,2.85-2.18,4.41-3.51-.17-.92-.52-1.83-1.05-2.74-.53-.9-1.15-1.73-1.86-2.47h4.83c.28.39.66.99,1.13,1.81.73-.83,1.25-1.38,1.56-1.65h4.44c-1.49,1.9-3.1,3.68-4.83,5.37.04.74.01,1.38-.1,1.91l-.52,3.03-.71,4.25-.03.03-1.94,11.37h-6.32c.73-.28,1.34-.63,1.83-1.05Zm6.01-1.63h1.43c1.38,0,3.26-.05,5.64-.16l1-5.92h-5.9l.1-.5h-.03l2.33-13.6h5.9l.62-3.56h4.18l-.62,3.56h2.14c.73,0,1.46-.13,2.17-.39s1.33-.62,1.85-1.08l-.26,1.46-.06.48-1.88,10.95-.45,2.68h-5.9l-.97,5.58c.82-.07,1.44-.13,1.85-.19,0-1.31.03-2.52.1-3.64h4.21c-.04.99-.06,2.19-.06,3.59,0,1.19.03,2.36.1,3.51h-4.28l-.03-.8c-4.32.48-8.38.72-12.18.72h-1.43l.45-2.68Zm8.52-8.77l1.49-8.74h-1.68l-1.49,8.74h1.69Zm5.86,0l1.49-8.74h-1.69l-1.49,8.74h1.68Z"/>
        <path class="cls-1" d="m70.72,15.23c1.01,0,1.96-.23,2.85-.69h-1.07l.26-1.54h-17.24l-.26,1.54h-4.21l.71-4.22h10.69l.26-1.51h4.21l-.26,1.51h7c.73,0,1.45-.12,2.14-.37s1.31-.6,1.85-1.06l-.26,1.43-.71,4.22h-2.11l-.13.69-.45,2.68h-9.82l-.78.64c.63.92,1.12,1.82,1.49,2.68.5.92,1.02,1.82,1.56,2.68,1.19-.99,2.21-2,3.06-3.01.85-1.02,1.45-1.86,1.8-2.54h4.73c-.65,1.17-1.63,2.52-2.96,4.05-1.33,1.53-2.94,2.98-4.84,4.34,2.4,3.61,4.54,6.31,6.42,8.08h-5.54c-1.32-1.47-2.72-3.4-4.21-5.79l-1.07,6.24h-4.05l.42-2.36-.03.16.46-2.63c-2.05,1.01-4.22,1.93-6.5,2.76-2.28.83-4.55,1.49-6.82,1.97l.62-3.59c2.29-.57,4.73-1.33,7.32-2.29,2.59-.96,4.6-1.85,6.03-2.68l.13-.82c.04-.28.06-.5.06-.64-4.62,2.37-9.05,4-13.29,4.89l.62-3.59c1.73-.3,3.74-.89,6.03-1.75,2.29-.87,4.32-1.76,6.09-2.68-.22-.48-.44-.92-.68-1.33-3.35,2.02-7.09,3.46-11.21,4.33l.62-3.61c3.11-.76,5.98-1.93,8.62-3.51h-6.35l.45-2.68h18.37Zm-10.95,20.06l.39-2.21c-.13.39-.43.78-.91,1.18-.48.4-1.07.74-1.78,1.02h2.3Z"/>
      </g>
    </g>
  </g>
</svg>