<?xml version="1.0" encoding="UTF-8"?>
<svg id="_图层_2" data-name="图层 2" xmlns="http://www.w3.org/2000/svg" xmlns:xlink="http://www.w3.org/1999/xlink" viewBox="0 0 90.27 44.5">
  <defs>
    <style>
      .cls-1 {
        fill: #fff;
      }

      .cls-2 {
        fill: #4d4d4d;
      }

      .cls-3 {
        filter: url(#drop-shadow-1);
      }
    </style>
    <filter id="drop-shadow-1" filterUnits="userSpaceOnUse">
      <feOffset dx="5.07" dy="5.07"/>
      <feGaussianBlur result="blur" stdDeviation="10.14"/>
      <feFlood flood-color="#000" flood-opacity=".45"/>
      <feComposite in2="blur" operator="in"/>
      <feComposite in="SourceGraphic"/>
    </filter>
  </defs>
  <g id="_图层_1-2" data-name="图层 1">
    <g>
      <path class="cls-2" d="m85.25,0H10.25c-3,0-5.8,2.5-6.2,5.5L.05,39c-.4,3,1.8,5.5,4.9,5.5h75.1c3,0,5.8-2.5,6.2-5.5l4-33.5c.3-3-1.9-5.5-5-5.5Z"/>
      <g class="cls-3">
        <path class="cls-1" d="m16.04,16.21h9.09c.55-.55,1.06-1.2,1.52-1.94h-11.84l.46-2.68h5.52c-.49-.92-.79-1.88-.93-2.87h4.23c.22,1.1.59,2.05,1.12,2.87h7.34c.95-.96,1.66-1.91,2.15-2.87h4.2c-.42.97-1.06,1.93-1.92,2.87h1.62c.79,0,1.55-.12,2.26-.36.72-.24,1.35-.6,1.9-1.08l-.73,4.12h-11.11c-.33.6-.81,1.25-1.42,1.94h6.91c.73,0,1.46-.12,2.18-.36.73-.24,1.32-.59,1.79-1.05l-3.57,20.48H12.7l3.34-19.08Zm17,16.39l.56-3.19h-15.61l-.56,3.19h15.61Zm1.02-5.87l.4-2.39h-15.61l-.4,2.39h15.61Zm.89-5.1l.46-2.71h-15.61l-.46,2.71h15.61Z"/>
        <path class="cls-1" d="m52.65,26.2c2.22-3.29,4.17-6.37,5.82-9.22h-8.27c1.76-2.57,3.15-5.26,4.17-8.08h4.43c-.71,2.04-1.48,3.83-2.31,5.39h3.51c.9-1.75,1.74-3.61,2.51-5.58h4.33c-.75,1.91-1.56,3.77-2.45,5.58h9.09c1.3,0,2.46-.31,3.47-.93h-4.07c-.42-1.04-.67-2.05-.76-3.03l-.13-1.43h4.1l.17,1.43c.07.94.31,1.95.73,3.03l.66-.48-.7,4.09h-14.02c-.35.66-.81,1.43-1.36,2.34h10.71c.82,0,1.58-.12,2.3-.36s1.35-.6,1.9-1.08l-.33,1.97c0,.05-.01.09-.03.11-.24,1.29-.63,2.41-1.17,3.36-.54.95-1.2,1.79-1.98,2.51-.78.73-1.81,1.55-3.09,2.47l-1.52,1.09c2.14,2.16,4.27,4.14,6.38,5.95h-5.75c-1.15-.94-2.46-2.15-3.94-3.64-1.56,1.06-3.27,2.28-5.12,3.64h-6.05c2.23-1.61,5.14-3.68,8.73-6.22l-.26-.32c-1.79-2.18-3.01-3.75-3.67-4.73-2.78,4.29-5.53,8.04-8.27,11.26h-4.83c2.49-2.8,4.85-5.84,7.08-9.14Zm10.25-3.24c.75,1.12,1.76,2.4,3.04,3.85l1.22-.88c1.19-.87,2.08-1.58,2.66-2.13.58-.55,1.04-1.15,1.37-1.81h-11.24l-.6.96h3.54Z"/>
      </g>
    </g>
  </g>
</svg>