<?xml version="1.0" encoding="utf-8"?>
<!-- Generator: Adobe Illustrator 27.1.1, SVG Export Plug-In . SVG Version: 6.00 Build 0)  -->
<svg version="1.1" id="图层_1" xmlns="http://www.w3.org/2000/svg" xmlns:xlink="http://www.w3.org/1999/xlink" x="0px" y="0px"
	 viewBox="0 0 105.6 54" style="enable-background:new 0 0 105.6 54;" xml:space="preserve">
<style type="text/css">
	.st0{fill:#4D4D4D;}
	.st1{fill:#FFFF00;}
	.st2{fill:#FFFFFF;}
</style>
<g>
	<path class="st0" d="M81.5,53H11.1c-4.9,0-8.7-4.2-8.2-9.1L6.3,9.5c0.4-4.2,4-7.5,8.2-7.5h70.4c4.9,0,8.7,4.2,8.2,9.1l-3.4,34.4
		C89.3,49.8,85.8,53,81.5,53z"/>
</g>
<path class="st1" d="M33.5,19.6c-2.6,12.3-4.9,20.2-20.3,23.8c-0.2-1.1-1-2.7-1.7-3.6c14.1-3,15.4-9.3,17.6-20.2
	C29.1,19.6,33.5,19.6,33.5,19.6z"/>
<path class="st1" d="M42.8,30.9l-0.3,1.5c-0.2,1.1-1.2,1.9-2.3,1.9h-28l0.6-3.5L42.8,30.9L42.8,30.9z"/>
<path class="st2" d="M45.4,14.3L44,22.2h-4.3l0.7-4.1H19.5l-0.7,4.1h-4.1l0.8-4.5c0.3-2,2.1-3.4,4.1-3.4
	C19.6,14.3,45.4,14.3,45.4,14.3z"/>
<path class="st2" d="M18.5,24c1.7,0.8,3.7,2.3,4.7,3.4l-3,3.1c-0.3-0.5-0.9-1-1.5-1.5C17.2,27.7,17.1,25.4,18.5,24L18.5,24z"/>
<path class="st2" d="M23,18.9c1.6,0.9,3.6,2.4,4.5,3.6l-3.1,3c-0.3-0.5-0.9-1.1-1.5-1.7c-1.4-1.3-1.4-3.4,0-4.6L23,18.9z"/>
<path class="st2" d="M30,35c3.9,1.2,8,3,10.6,4.5c0.4,0.2,0.4,0.7,0.1,1.1l-2.5,2.7c-2.3-1.8-6.5-3.9-10.7-5.2L30,35z"/>
<path class="st2" d="M32.6,11.1c0.6,1.4,1.2,3.1,1.3,4.2l-4.7,1.4c-0.1-1.1-0.5-2.8-1.1-4.3c-0.1-0.3,0.1-0.6,0.4-0.7l3.3-1
	C32.1,10.7,32.4,10.8,32.6,11.1z"/>
<path class="st1" d="M58.2,32L58.2,32c-1.3,2.6-2.7,5.3-4.2,7.9c-1,1.8-3.3,2.3-5,1.3L48.9,41c1.3-2,3.1-4.9,4.7-7.9
	C54.5,31.4,56.7,30.9,58.2,32z"/>
<path class="st1" d="M54.2,20.6c0.9,0.5,2,1.1,3.1,1.8c1.2,0.7,1.4,2.3,0.4,3.3l-1.4,1.5c-0.4-0.4-1-0.9-1.7-1.4
	C53,24.6,52.8,22.1,54.2,20.6L54.2,20.6z"/>
<path class="st1" d="M57.3,11.4c0.4,0.2,0.8,0.4,1.2,0.7c2.2,1.3,2.6,4.2,0.9,6.1l0,0c-0.6-0.6-1.7-1.5-2.8-2.3s-1.3-2.4-0.3-3.4
	L57.3,11.4z"/>
<path class="st2" d="M68.9,17.8c0.3,0,0.5,0.3,0.4,0.5L67.1,31c-0.7,3.9-2.2,8.3-7,11.2c-1.2,0.7-2.7,0.3-3.4-0.8l0,0
	c-0.2-0.2-0.1-0.5,0.2-0.7c5.4-2.4,6.6-6,7.2-9.8l2.3-12.8c0-0.2,0.2-0.4,0.4-0.4L68.9,17.8L68.9,17.8z"/>
<polygon class="st2" points="75.1,12.9 71.1,35.4 67.9,35.4 71.3,15.9 65.4,15.9 61.9,35.6 58.8,35.6 62.8,12.9 "/>
<path class="st2" d="M70.2,38.8c0.7,1,1.2,2,1.6,2.7l-2.9,1.7c-0.6-1.5-2-3.8-3.3-5.5l0,0C67.2,36.8,69.2,37.3,70.2,38.8z"/>
<path class="st2" d="M84.9,11.6L80,39.3c-0.3,1.9-0.9,2.8-2,3.4c-1.2,0.6-2.9,0.7-5.4,0.7c0-0.9-0.2-2.4-0.4-3.4
	c1.7,0.1,3.3,0,3.8,0s0.7-0.2,0.8-0.7l4.3-24.4C81.4,13,83,11.6,84.9,11.6L84.9,11.6z"/>
<path class="st1" d="M79.3,16.1l-3.2,18.2c-0.1,0.7-0.8,1.3-1.5,1.3l0,0c-1,0-1.7-0.9-1.5-1.8l3.2-18.2c0.1-0.7,0.8-1.3,1.5-1.3l0,0
	C78.7,14.3,79.4,15.1,79.3,16.1z"/>
</svg>
